<mxfile host="app.diagrams.net" modified="2023-09-02T17:10:35.385Z" agent="Mozilla/5.0 (Windows NT 10.0; Win64; x64) AppleWebKit/537.36 (KHTML, like Gecko) Chrome/116.0.0.0 Safari/537.36" etag="rtErjfEw0XB62Dhk1gdn" version="21.7.2" type="device">
  <diagram name="Page-1" id="16e2658f-23c8-b752-8be9-c03fbebb8bbe">
    <mxGraphModel dx="1147" dy="702" grid="1" gridSize="10" guides="1" tooltips="1" connect="1" arrows="1" fold="1" page="1" pageScale="1" pageWidth="1100" pageHeight="850" background="none" math="0" shadow="0">
      <root>
        <mxCell id="0" />
        <mxCell id="1" parent="0" />
        <mxCell id="6d250d948d6a1778-7" style="edgeStyle=orthogonalEdgeStyle;rounded=0;html=1;exitX=1;exitY=0.5;exitPerimeter=0;entryX=0;entryY=0.54;entryPerimeter=0;labelBackgroundColor=none;startArrow=none;startFill=0;startSize=5;endArrow=none;endFill=0;endSize=5;jettySize=auto;orthogonalLoop=1;strokeWidth=1;fontFamily=Verdana;fontSize=12;entryDx=0;entryDy=0;" parent="1" source="6d250d948d6a1778-1" target="LmL_nz_cgUp4eiV16DW--1" edge="1">
          <mxGeometry relative="1" as="geometry">
            <Array as="points">
              <mxPoint x="230" y="120" />
              <mxPoint x="400" y="120" />
              <mxPoint x="400" y="160" />
            </Array>
            <mxPoint x="400" y="160" as="targetPoint" />
          </mxGeometry>
        </mxCell>
        <mxCell id="6d250d948d6a1778-8" style="edgeStyle=orthogonalEdgeStyle;rounded=0;html=1;exitX=1;exitY=0.5;exitPerimeter=0;entryX=0;entryY=0.57;entryPerimeter=0;labelBackgroundColor=none;startArrow=none;startFill=0;startSize=5;endArrow=none;endFill=0;endSize=5;jettySize=auto;orthogonalLoop=1;strokeWidth=1;fontFamily=Verdana;fontSize=12;entryDx=0;entryDy=0;" parent="1" source="6d250d948d6a1778-1" target="LmL_nz_cgUp4eiV16DW--4" edge="1">
          <mxGeometry relative="1" as="geometry">
            <Array as="points">
              <mxPoint x="230" y="120" />
              <mxPoint x="640" y="120" />
              <mxPoint x="640" y="155" />
            </Array>
            <mxPoint x="639.9999999999998" y="160" as="targetPoint" />
          </mxGeometry>
        </mxCell>
        <mxCell id="6d250d948d6a1778-1" value="" style="verticalLabelPosition=bottom;shadow=0;dashed=0;align=center;fillColor=#000000;html=1;verticalAlign=top;strokeWidth=1;shape=mxgraph.electrical.miscellaneous.monocell_battery;rounded=1;comic=0;labelBackgroundColor=none;fontFamily=Verdana;fontSize=12;rotation=-90;" parent="1" vertex="1">
          <mxGeometry x="180" y="290" width="100" height="60" as="geometry" />
        </mxCell>
        <mxCell id="6d250d948d6a1778-12" style="edgeStyle=orthogonalEdgeStyle;rounded=0;html=1;exitX=1;exitY=0.54;exitPerimeter=0;entryX=1;entryY=0.5;entryPerimeter=0;labelBackgroundColor=none;startArrow=none;startFill=0;startSize=5;endArrow=none;endFill=0;endSize=5;jettySize=auto;orthogonalLoop=1;strokeWidth=1;fontFamily=Verdana;fontSize=12;exitDx=0;exitDy=0;" parent="1" source="LmL_nz_cgUp4eiV16DW--1" target="6d250d948d6a1778-4" edge="1">
          <mxGeometry relative="1" as="geometry">
            <mxPoint x="400" y="260" as="sourcePoint" />
          </mxGeometry>
        </mxCell>
        <mxCell id="6d250d948d6a1778-9" style="edgeStyle=orthogonalEdgeStyle;rounded=0;html=1;exitX=1;exitY=0.57;exitPerimeter=0;entryX=1;entryY=0.5;entryPerimeter=0;labelBackgroundColor=none;startArrow=none;startFill=0;startSize=5;endArrow=none;endFill=0;endSize=5;jettySize=auto;orthogonalLoop=1;strokeWidth=1;fontFamily=Verdana;fontSize=12;exitDx=0;exitDy=0;" parent="1" source="LmL_nz_cgUp4eiV16DW--4" target="6d250d948d6a1778-5" edge="1">
          <mxGeometry relative="1" as="geometry">
            <mxPoint x="639.9999999999998" y="260.0000000000001" as="sourcePoint" />
          </mxGeometry>
        </mxCell>
        <mxCell id="6d250d948d6a1778-13" style="edgeStyle=orthogonalEdgeStyle;rounded=0;html=1;exitX=0;exitY=0.5;exitPerimeter=0;entryX=0;entryY=0.5;entryPerimeter=0;labelBackgroundColor=none;startArrow=none;startFill=0;startSize=5;endArrow=none;endFill=0;endSize=5;jettySize=auto;orthogonalLoop=1;strokeWidth=1;fontFamily=Verdana;fontSize=12" parent="1" source="6d250d948d6a1778-4" target="6d250d948d6a1778-1" edge="1">
          <mxGeometry relative="1" as="geometry">
            <Array as="points">
              <mxPoint x="400" y="470" />
              <mxPoint x="230" y="470" />
            </Array>
          </mxGeometry>
        </mxCell>
        <mxCell id="6d250d948d6a1778-4" value="" style="verticalLabelPosition=bottom;shadow=0;dashed=0;align=center;html=1;verticalAlign=top;strokeWidth=1;shape=mxgraph.electrical.resistors.resistor_1;rounded=1;comic=0;labelBackgroundColor=none;fontFamily=Verdana;fontSize=12;rotation=-90;" parent="1" vertex="1">
          <mxGeometry x="350" y="370" width="100" height="20" as="geometry" />
        </mxCell>
        <mxCell id="6d250d948d6a1778-5" value="" style="verticalLabelPosition=bottom;shadow=0;dashed=0;align=center;html=1;verticalAlign=top;strokeWidth=1;shape=mxgraph.electrical.resistors.resistor_1;rounded=1;comic=0;labelBackgroundColor=none;fontFamily=Verdana;fontSize=12;rotation=-90;" parent="1" vertex="1">
          <mxGeometry x="570" y="390" width="140" height="20" as="geometry" />
        </mxCell>
        <mxCell id="6d250d948d6a1778-17" value="100Ω" style="text;html=1;resizable=0;points=[];autosize=1;align=left;verticalAlign=top;spacingTop=-4;fontSize=16;fontFamily=Verdana" parent="1" vertex="1">
          <mxGeometry x="330" y="375" width="70" height="30" as="geometry" />
        </mxCell>
        <mxCell id="6d250d948d6a1778-20" value="~300kΩ" style="text;html=1;resizable=0;points=[];autosize=1;align=left;verticalAlign=top;spacingTop=-4;fontSize=16;fontFamily=Verdana" parent="1" vertex="1">
          <mxGeometry x="650" y="370" width="90" height="30" as="geometry" />
        </mxCell>
        <mxCell id="LmL_nz_cgUp4eiV16DW--1" value="" style="verticalLabelPosition=bottom;shadow=0;dashed=0;align=center;html=1;verticalAlign=top;shape=mxgraph.electrical.opto_electronics.led_1;pointerEvents=1;rotation=90;" vertex="1" parent="1">
          <mxGeometry x="350" y="177.5" width="100" height="65" as="geometry" />
        </mxCell>
        <mxCell id="LmL_nz_cgUp4eiV16DW--3" value="LTE-4206" style="text;html=1;align=center;verticalAlign=middle;resizable=0;points=[];autosize=1;strokeColor=none;fillColor=none;" vertex="1" parent="1">
          <mxGeometry x="280" y="190" width="80" height="30" as="geometry" />
        </mxCell>
        <mxCell id="LmL_nz_cgUp4eiV16DW--4" value="" style="verticalLabelPosition=bottom;shadow=0;dashed=0;align=center;html=1;verticalAlign=top;shape=mxgraph.electrical.opto_electronics.photodiode;pointerEvents=1;rotation=90;" vertex="1" parent="1">
          <mxGeometry x="590" y="170" width="100" height="70" as="geometry" />
        </mxCell>
        <mxCell id="LmL_nz_cgUp4eiV16DW--5" value="LTR-4206E" style="text;html=1;align=center;verticalAlign=middle;resizable=0;points=[];autosize=1;strokeColor=none;fillColor=none;" vertex="1" parent="1">
          <mxGeometry x="665" y="190" width="80" height="30" as="geometry" />
        </mxCell>
        <mxCell id="LmL_nz_cgUp4eiV16DW--6" value="" style="endArrow=classic;html=1;rounded=0;" edge="1" parent="1">
          <mxGeometry width="50" height="50" relative="1" as="geometry">
            <mxPoint x="630" y="290" as="sourcePoint" />
            <mxPoint x="770" y="290" as="targetPoint" />
          </mxGeometry>
        </mxCell>
        <mxCell id="LmL_nz_cgUp4eiV16DW--7" value="to arduino analog input pin" style="text;html=1;strokeColor=none;fillColor=none;align=center;verticalAlign=middle;whiteSpace=wrap;rounded=0;" vertex="1" parent="1">
          <mxGeometry x="690" y="290" width="170" height="30" as="geometry" />
        </mxCell>
        <mxCell id="LmL_nz_cgUp4eiV16DW--8" value="" style="endArrow=none;html=1;rounded=0;entryX=0;entryY=0.5;entryDx=0;entryDy=0;entryPerimeter=0;" edge="1" parent="1" target="6d250d948d6a1778-5">
          <mxGeometry width="50" height="50" relative="1" as="geometry">
            <mxPoint x="400" y="470" as="sourcePoint" />
            <mxPoint x="600" y="330" as="targetPoint" />
          </mxGeometry>
        </mxCell>
      </root>
    </mxGraphModel>
  </diagram>
</mxfile>
